{
  "accessors": [
    {
      "bufferView": 2,
      "componentType": 5126,
      "count": 96,
      "max": [
        12.020000457763672,
        9.020000457763672,
        -2.5
      ],
      "min": [
        -9.020000457763672,
        -9.020000457763672,
        -2.808000326156616
      ],
      "type": "VEC3"
    },
    {
      "bufferView": 2,
      "byteOffset": 1152,
      "componentType": 5126,
      "count": 96,
      "max": [
        1.0,
        1.0,
        0.9284783005714417
      ],
      "min": [
        -1.0,
        -1.0,
        -0.9284751415252686
      ],
      "type": "VEC3"
    },
    {
      "bufferView": 1,
      "componentType": 5126,
      "count": 96,
      "max": [
        1.0,
        1.0
      ],
      "min": [
        0.0,
        0.0
      ],
      "type": "VEC2"
    },
    {
      "bufferView": 0,
      "componentType": 5125,
      "count": 144,
      "type": "SCALAR"
    },
    {
      "bufferView": 2,
      "byteOffset": 2304,
      "componentType": 5126,
      "count": 40,
      "max": [
        3.0,
        0.10000000149011612,
        0.8100000023841858
      ],
      "min": [
        0.0,
        -0.10000000149011612,
        0.46000000834465027
      ],
      "type": "VEC3"
    },
    {
      "bufferView": 2,
      "byteOffset": 2784,
      "componentType": 5126,
      "count": 40,
      "max": [
        1.0,
        1.0,
        1.0
      ],
      "min": [
        -1.0,
        -1.0,
        -1.0
      ],
      "type": "VEC3"
    },
    {
      "bufferView": 1,
      "byteOffset": 768,
      "componentType": 5126,
      "count": 40,
      "max": [
        1.0,
        1.0
      ],
      "min": [
        0.0,
        0.0
      ],
      "type": "VEC2"
    },
    {
      "bufferView": 0,
      "byteOffset": 576,
      "componentType": 5125,
      "count": 60,
      "type": "SCALAR"
    },
    {
      "bufferView": 2,
      "byteOffset": 3264,
      "componentType": 5126,
      "count": 2988,
      "max": [
        12.00003719329834,
        9.00003719329834,
        0.9990928769111633
      ],
      "min": [
        -9.00003719329834,
        -9.00003719329834,
        -2.9000000953674316
      ],
      "type": "VEC3"
    },
    {
      "bufferView": 2,
      "byteOffset": 39120,
      "componentType": 5126,
      "count": 2988,
      "max": [
        1.0,
        1.0,
        0.9622507095336914
      ],
      "min": [
        -1.0,
        -1.0,
        -0.9622509479522705
      ],
      "type": "VEC3"
    },
    {
      "bufferView": 1,
      "byteOffset": 1088,
      "componentType": 5126,
      "count": 2988,
      "max": [
        1.0,
        1.0
      ],
      "min": [
        0.0,
        0.0
      ],
      "type": "VEC2"
    },
    {
      "bufferView": 0,
      "byteOffset": 816,
      "componentType": 5125,
      "count": 4488,
      "type": "SCALAR"
    },
    {
      "bufferView": 2,
      "byteOffset": 74976,
      "componentType": 5126,
      "count": 10368,
      "max": [
        12.10757064819336,
        9.10757064819336,
        1.1700000762939453
      ],
      "min": [
        -9.10757064819336,
        -9.10757064819336,
        -2.642878293991089
      ],
      "type": "VEC3"
    },
    {
      "bufferView": 2,
      "byteOffset": 199392,
      "componentType": 5126,
      "count": 10368,
      "max": [
        1.0,
        0.9988575577735901,
        0.9882144331932068
      ],
      "min": [
        -1.0,
        -0.9988575577735901,
        -1.0
      ],
      "type": "VEC3"
    },
    {
      "bufferView": 1,
      "byteOffset": 24992,
      "componentType": 5126,
      "count": 10368,
      "max": [
        1.0,
        1.0
      ],
      "min": [
        0.0,
        0.0
      ],
      "type": "VEC2"
    },
    {
      "bufferView": 0,
      "byteOffset": 18768,
      "componentType": 5125,
      "count": 19008,
      "type": "SCALAR"
    },
    {
      "bufferView": 2,
      "byteOffset": 323808,
      "componentType": 5126,
      "count": 192,
      "max": [
        12.214547157287598,
        9.214548110961914,
        -2.5
      ],
      "min": [
        -9.214547157287598,
        -9.214548110961914,
        -2.75
      ],
      "type": "VEC3"
    },
    {
      "bufferView": 2,
      "byteOffset": 326112,
      "componentType": 5126,
      "count": 192,
      "max": [
        1.0,
        1.0,
        0.16896773874759674
      ],
      "min": [
        -1.0,
        -1.0,
        -0.9915271401405334
      ],
      "type": "VEC3"
    },
    {
      "bufferView": 1,
      "byteOffset": 107936,
      "componentType": 5126,
      "count": 192,
      "max": [
        1.0,
        1.0
      ],
      "min": [
        0.0,
        0.0
      ],
      "type": "VEC2"
    },
    {
      "bufferView": 0,
      "byteOffset": 94800,
      "componentType": 5125,
      "count": 288,
      "type": "SCALAR"
    },
    {
      "bufferView": 2,
      "byteOffset": 328416,
      "componentType": 5126,
      "count": 84,
      "max": [
        12.0,
        9.0,
        1.0003012418746948
      ],
      "min": [
        -9.0,
        -9.0,
        -2.6200928688049316
      ],
      "type": "VEC3"
    },
    {
      "bufferView": 2,
      "byteOffset": 329424,
      "componentType": 5126,
      "count": 84,
      "max": [
        0.9999985694885254,
        0.9999985694885254,
        0.9284767508506775
      ],
      "min": [
        -0.9999985098838806,
        -0.9999985694885254,
        -0.9284767508506775
      ],
      "type": "VEC3"
    },
    {
      "bufferView": 1,
      "byteOffset": 109472,
      "componentType": 5126,
      "count": 84,
      "max": [
        874.7999877929688,
        9.0
      ],
      "min": [
        0.0,
        -0.0
      ],
      "type": "VEC2"
    },
    {
      "bufferView": 0,
      "byteOffset": 95952,
      "componentType": 5125,
      "count": 120,
      "type": "SCALAR"
    },
    {
      "bufferView": 2,
      "byteOffset": 330432,
      "componentType": 5126,
      "count": 19826,
      "max": [
        12.013197898864746,
        9.013197898864746,
        1.1313360929489136
      ],
      "min": [
        -9.013197898864746,
        -9.013197898864746,
        -2.4982752799987793
      ],
      "type": "VEC3"
    },
    {
      "bufferView": 2,
      "byteOffset": 568344,
      "componentType": 5126,
      "count": 19826,
      "max": [
        0.8594685196876526,
        0.8044677376747131,
        0.9999455809593201
      ],
      "min": [
        -0.8580182194709778,
        -0.8594973087310791,
        0.29516661167144775
      ],
      "type": "VEC3"
    },
    {
      "bufferView": 1,
      "byteOffset": 110144,
      "componentType": 5126,
      "count": 19826,
      "max": [
        1.0,
        0.0
      ],
      "min": [
        -5.289508635542006e-07,
        -1.0000003576278687
      ],
      "type": "VEC2"
    },
    {
      "bufferView": 0,
      "byteOffset": 96432,
      "componentType": 5125,
      "count": 34320,
      "type": "SCALAR"
    },
    {
      "bufferView": 2,
      "byteOffset": 806256,
      "componentType": 5126,
      "count": 17736,
      "max": [
        12.013197898864746,
        9.013197898864746,
        1.1313360929489136
      ],
      "min": [
        -9.013197898864746,
        -9.013197898864746,
        -2.4982752799987793
      ],
      "type": "VEC3"
    },
    {
      "bufferView": 2,
      "byteOffset": 1019088,
      "componentType": 5126,
      "count": 17736,
      "max": [
        0.8580114841461182,
        0.8594522476196289,
        0.9999455213546753
      ],
      "min": [
        -0.8594685196876526,
        -0.8580482006072998,
        0.29518091678619385
      ],
      "type": "VEC3"
    },
    {
      "bufferView": 1,
      "byteOffset": 268752,
      "componentType": 5126,
      "count": 17736,
      "max": [
        1.0000004768371582,
        0.0
      ],
      "min": [
        -5.2463814625980376e-08,
        -1.0000004768371582
      ],
      "type": "VEC2"
    },
    {
      "bufferView": 0,
      "byteOffset": 233712,
      "componentType": 5125,
      "count": 30696,
      "type": "SCALAR"
    },
    {
      "bufferView": 2,
      "byteOffset": 1231920,
      "componentType": 5126,
      "count": 19414,
      "max": [
        12.013197898864746,
        9.013197898864746,
        1.1313360929489136
      ],
      "min": [
        -9.013197898864746,
        -9.013197898864746,
        -2.4982752799987793
      ],
      "type": "VEC3"
    },
    {
      "bufferView": 2,
      "byteOffset": 1464888,
      "componentType": 5126,
      "count": 19414,
      "max": [
        0.8056257367134094,
        0.8042749762535095,
        0.999889075756073
      ],
      "min": [
        -0.7549405694007874,
        -0.8594522476196289,
        0.3566158413887024
      ],
      "type": "VEC3"
    },
    {
      "bufferView": 1,
      "byteOffset": 410640,
      "componentType": 5126,
      "count": 19414,
      "max": [
        1.0,
        0.0
      ],
      "min": [
        0.0,
        -1.0000003576278687
      ],
      "type": "VEC2"
    },
    {
      "bufferView": 0,
      "byteOffset": 356496,
      "componentType": 5125,
      "count": 33606,
      "type": "SCALAR"
    },
    {
      "bufferView": 2,
      "byteOffset": 1697856,
      "componentType": 5126,
      "count": 18432,
      "max": [
        12.013197898864746,
        9.013197898864746,
        1.1313360929489136
      ],
      "min": [
        -9.013197898864746,
        -9.013197898864746,
        -2.4982752799987793
      ],
      "type": "VEC3"
    },
    {
      "bufferView": 2,
      "byteOffset": 1919040,
      "componentType": 5126,
      "count": 18432,
      "max": [
        0.8594534993171692,
        0.8594629168510437,
        0.9999455809593201
      ],
      "min": [
        -0.8594534993171692,
        -0.8580396175384521,
        0.2951256334781647
      ],
      "type": "VEC3"
    },
    {
      "bufferView": 1,
      "byteOffset": 565952,
      "componentType": 5126,
      "count": 18432,
      "max": [
        1.0,
        0.0
      ],
      "min": [
        0.0,
        -1.0000003576278687
      ],
      "type": "VEC2"
    },
    {
      "bufferView": 0,
      "byteOffset": 490920,
      "componentType": 5125,
      "count": 31902,
      "type": "SCALAR"
    }
  ],
  "asset": {
    "extras": {
      "author": "amrmukhlisin (https://sketchfab.com/amrmukhlisin)",
      "license": "CC-BY-4.0 (http://creativecommons.org/licenses/by/4.0/)",
      "source": "https://sketchfab.com/3d-models/iron-roof-model-a838aa5cdbf24270b1800c0e2a599053",
      "title": "Iron Roof Model"
    },
    "generator": "Sketchfab-13.57.0",
    "version": "2.0"
  },
  "bufferViews": [
    {
      "buffer": 0,
      "byteLength": 618528,
      "name": "floatBufferViews",
      "target": 34963
    },
    {
      "buffer": 0,
      "byteLength": 713408,
      "byteOffset": 618528,
      "byteStride": 8,
      "name": "floatBufferViews",
      "target": 34962
    },
    {
      "buffer": 0,
      "byteLength": 2140224,
      "byteOffset": 1331936,
      "byteStride": 12,
      "name": "floatBufferViews",
      "target": 34962
    }
  ],
  "buffers": [
    {
      "byteLength": 3472160,
      "uri": "scene.bin"
    }
  ],
  "materials": [
    {
      "doubleSided": true,
      "name": "Roof_eaves",
      "pbrMetallicRoughness": {
        "metallicFactor": 0.0,
        "roughnessFactor": 0.7763932022500211
      }
    },
    {
      "doubleSided": true,
      "name": "Roof_ridge",
      "pbrMetallicRoughness": {
        "metallicFactor": 0.0,
        "roughnessFactor": 0.7550510257216823
      }
    },
    {
      "doubleSided": true,
      "name": "Roof_rafter",
      "pbrMetallicRoughness": {
        "baseColorFactor": [
          0.0412611,
          0.0412611,
          0.0412611,
          1.0
        ],
        "metallicFactor": 0.0,
        "roughnessFactor": 0.9898931358774049
      }
    },
    {
      "doubleSided": true,
      "name": "Roof_hip_metal",
      "pbrMetallicRoughness": {
        "baseColorFactor": [
          0.0234002,
          0.00681231,
          0.0,
          1.0
        ],
        "metallicFactor": 0.0,
        "roughnessFactor": 0.9975879760278208
      }
    },
    {
      "doubleSided": true,
      "name": "Roof_valley",
      "pbrMetallicRoughness": {
        "baseColorFactor": [
          0.153835,
          0.211501,
          0.137321,
          1.0
        ],
        "metallicFactor": 0.0,
        "roughnessFactor": 0.9525079671050913
      }
    },
    {
      "doubleSided": true,
      "name": "Roof_sheeting",
      "pbrMetallicRoughness": {
        "baseColorFactor": [
          0.682731,
          0.682731,
          0.682731,
          1.0
        ],
        "metallicFactor": 0.0,
        "roughnessFactor": 0.8327657418419898
      }
    },
    {
      "doubleSided": true,
      "name": "Roof_metal",
      "pbrMetallicRoughness": {
        "baseColorFactor": [
          0.0512695,
          0.0512695,
          0.0512695,
          1.0
        ],
        "metallicFactor": 0.0,
        "roughnessFactor": 0.9874415885632378
      }
    },
    {
      "doubleSided": true,
      "name": "Roof_metal2",
      "pbrMetallicRoughness": {
        "baseColorFactor": [
          0.0395463,
          0.0395463,
          0.0395463,
          1.0
        ],
        "metallicFactor": 0.0,
        "roughnessFactor": 0.9903131743784973
      }
    },
    {
      "doubleSided": true,
      "name": "Roof_metal3",
      "pbrMetallicRoughness": {
        "baseColorFactor": [
          0.0409152,
          0.0409152,
          0.0409152,
          1.0
        ],
        "metallicFactor": 0.0,
        "roughnessFactor": 0.9899778637276078
      }
    },
    {
      "doubleSided": true,
      "name": "Roof_metal4",
      "pbrMetallicRoughness": {
        "baseColorFactor": [
          0.043735,
          0.043735,
          0.043735,
          1.0
        ],
        "metallicFactor": 0.0,
        "roughnessFactor": 0.9892871566099378
      }
    }
  ],
  "meshes": [
    {
      "name": "Atap_Roof_eaves_0",
      "primitives": [
        {
          "attributes": {
            "NORMAL": 1,
            "POSITION": 0,
            "TEXCOORD_0": 2
          },
          "indices": 3,
          "material": 0,
          "mode": 4
        }
      ]
    },
    {
      "name": "Atap_Roof_ridge_0",
      "primitives": [
        {
          "attributes": {
            "NORMAL": 5,
            "POSITION": 4,
            "TEXCOORD_0": 6
          },
          "indices": 7,
          "material": 1,
          "mode": 4
        }
      ]
    },
    {
      "name": "Atap_Roof_rafter_0",
      "primitives": [
        {
          "attributes": {
            "NORMAL": 9,
            "POSITION": 8,
            "TEXCOORD_0": 10
          },
          "indices": 11,
          "material": 2,
          "mode": 4
        }
      ]
    },
    {
      "name": "Atap_Roof_hip_metal_0",
      "primitives": [
        {
          "attributes": {
            "NORMAL": 13,
            "POSITION": 12,
            "TEXCOORD_0": 14
          },
          "indices": 15,
          "material": 3,
          "mode": 4
        }
      ]
    },
    {
      "name": "Atap_Roof_valley_0",
      "primitives": [
        {
          "attributes": {
            "NORMAL": 17,
            "POSITION": 16,
            "TEXCOORD_0": 18
          },
          "indices": 19,
          "material": 4,
          "mode": 4
        }
      ]
    },
    {
      "name": "Atap_Roof_sheeting_0",
      "primitives": [
        {
          "attributes": {
            "NORMAL": 21,
            "POSITION": 20,
            "TEXCOORD_0": 22
          },
          "indices": 23,
          "material": 5,
          "mode": 4
        }
      ]
    },
    {
      "name": "Atap_Roof_metal_0",
      "primitives": [
        {
          "attributes": {
            "NORMAL": 25,
            "POSITION": 24,
            "TEXCOORD_0": 26
          },
          "indices": 27,
          "material": 6,
          "mode": 4
        }
      ]
    },
    {
      "name": "Atap_Roof_metal2_0",
      "primitives": [
        {
          "attributes": {
            "NORMAL": 29,
            "POSITION": 28,
            "TEXCOORD_0": 30
          },
          "indices": 31,
          "material": 7,
          "mode": 4
        }
      ]
    },
    {
      "name": "Atap_Roof_metal3_0",
      "primitives": [
        {
          "attributes": {
            "NORMAL": 33,
            "POSITION": 32,
            "TEXCOORD_0": 34
          },
          "indices": 35,
          "material": 8,
          "mode": 4
        }
      ]
    },
    {
      "name": "Atap_Roof_metal4_0",
      "primitives": [
        {
          "attributes": {
            "NORMAL": 37,
            "POSITION": 36,
            "TEXCOORD_0": 38
          },
          "indices": 39,
          "material": 9,
          "mode": 4
        }
      ]
    }
  ],
  "nodes": [
    {
      "children": [
        1
      ],
      "matrix": [
        1.0,
        0.0,
        0.0,
        0.0,
        0.0,
        2.220446049250313e-16,
        -1.0,
        0.0,
        0.0,
        1.0,
        2.220446049250313e-16,
        0.0,
        0.0,
        0.0,
        0.0,
        1.0
      ],
      "name": "Sketchfab_model"
    },
    {
      "children": [
        2
      ],
      "matrix": [
        0.009999999776482582,
        0.0,
        0.0,
        0.0,
        0.0,
        0.0,
        0.009999999776482582,
        0.0,
        0.0,
        -0.009999999776482582,
        0.0,
        0.0,
        0.0,
        0.0,
        0.0,
        1.0
      ],
      "name": "0c73a0c75f254a74a5f64dfb346e0469.fbx"
    },
    {
      "children": [
        3
      ],
      "name": "RootNode"
    },
    {
      "children": [
        4,
        5,
        6,
        7,
        8,
        9,
        10,
        11,
        12,
        13
      ],
      "matrix": [
        4.6804039609295425e-06,
        -1.1887730485052577e-14,
        -107.07515716552724,
        0.0,
        -99.73387908935528,
        -4.359506491380348e-06,
        -4.359506496916691e-06,
        0.0,
        -4.306150200840899e-06,
        98.5132293701171,
        -1.9686897985838996e-13,
        0.0,
        -1.8575810194015503,
        757.4797973632813,
        286.2266540527344,
        1.0
      ],
      "name": "Atap"
    },
    {
      "mesh": 0,
      "name": "Atap_Roof_eaves_0"
    },
    {
      "mesh": 1,
      "name": "Atap_Roof_ridge_0"
    },
    {
      "mesh": 2,
      "name": "Atap_Roof_rafter_0"
    },
    {
      "mesh": 3,
      "name": "Atap_Roof_hip_metal_0"
    },
    {
      "mesh": 4,
      "name": "Atap_Roof_valley_0"
    },
    {
      "mesh": 5,
      "name": "Atap_Roof_sheeting_0"
    },
    {
      "mesh": 6,
      "name": "Atap_Roof_metal_0"
    },
    {
      "mesh": 7,
      "name": "Atap_Roof_metal2_0"
    },
    {
      "mesh": 8,
      "name": "Atap_Roof_metal3_0"
    },
    {
      "mesh": 9,
      "name": "Atap_Roof_metal4_0"
    }
  ],
  "scene": 0,
  "scenes": [
    {
      "name": "Sketchfab_Scene",
      "nodes": [
        0
      ]
    }
  ]
}
