{
  "accessors": [
    {
      "bufferView": 2,
      "componentType": 5126,
      "count": 244,
      "max": [
        -52.99689865112305,
        -138.72760009765625,
        22.480499267578125
      ],
      "min": [
        -89.0302963256836,
        -157.97189331054688,
        0.7394999861717224
      ],
      "type": "VEC3"
    },
    {
      "bufferView": 2,
      "byteOffset": 2928,
      "componentType": 5126,
      "count": 244,
      "max": [
        0.9999978542327881,
        0.9082892537117004,
        0.9999948740005493
      ],
      "min": [
        -1.0,
        -0.9438207745552063,
        -0.999941349029541
      ],
      "type": "VEC3"
    },
    {
      "bufferView": 3,
      "componentType": 5126,
      "count": 244,
      "max": [
        0.9999991655349731,
        0.9999992251396179,
        0.9997617602348328,
        1.0
      ],
      "min": [
        -0.999999463558197,
        -0.9605118632316589,
        -0.9999999403953552,
        1.0
      ],
      "type": "VEC4"
    },
    {
      "bufferView": 1,
      "componentType": 5126,
      "count": 244,
      "max": [
        0.9901000261306763,
        0.9994999766349792
      ],
      "min": [
        0.0005000000237487257,
        0.0005000000237487257
      ],
      "type": "VEC2"
    },
    {
      "bufferView": 0,
      "componentType": 5125,
      "count": 900,
      "type": "SCALAR"
    }
  ],
  "asset": {
    "extras": {
      "author": "Shedmon (https://sketchfab.com/shedmon)",
      "license": "CC-BY-4.0 (http://creativecommons.org/licenses/by/4.0/)",
      "source": "https://sketchfab.com/3d-models/wooden-table-6856e465f6a7407098224ac050141779",
      "title": "Wooden Table"
    },
    "generator": "Sketchfab-13.74.0",
    "version": "2.0"
  },
  "bufferViews": [
    {
      "buffer": 0,
      "byteLength": 3600,
      "name": "floatBufferViews",
      "target": 34963
    },
    {
      "buffer": 0,
      "byteLength": 1952,
      "byteOffset": 3600,
      "byteStride": 8,
      "name": "floatBufferViews",
      "target": 34962
    },
    {
      "buffer": 0,
      "byteLength": 5856,
      "byteOffset": 5552,
      "byteStride": 12,
      "name": "floatBufferViews",
      "target": 34962
    },
    {
      "buffer": 0,
      "byteLength": 3904,
      "byteOffset": 11408,
      "byteStride": 16,
      "name": "floatBufferViews",
      "target": 34962
    }
  ],
  "buffers": [
    {
      "byteLength": 15312,
      "uri": "scene.bin"
    }
  ],
  "images": [
    {
      "uri": "textures/Table_baseColor.png"
    },
    {
      "uri": "textures/Table_metallicRoughness.png"
    },
    {
      "uri": "textures/Table_normal.png"
    }
  ],
  "materials": [
    {
      "doubleSided": true,
      "name": "Table",
      "normalTexture": {
        "index": 2
      },
      "occlusionTexture": {
        "index": 1
      },
      "pbrMetallicRoughness": {
        "baseColorTexture": {
          "index": 0
        },
        "metallicRoughnessTexture": {
          "index": 1
        }
      }
    }
  ],
  "meshes": [
    {
      "name": "Object_0",
      "primitives": [
        {
          "attributes": {
            "NORMAL": 1,
            "POSITION": 0,
            "TANGENT": 2,
            "TEXCOORD_0": 3
          },
          "indices": 4,
          "material": 0,
          "mode": 4
        }
      ]
    }
  ],
  "nodes": [
    {
      "children": [
        1
      ],
      "matrix": [
        1.0,
        0.0,
        0.0,
        0.0,
        0.0,
        2.220446049250313e-16,
        -1.0,
        0.0,
        0.0,
        1.0,
        2.220446049250313e-16,
        0.0,
        0.0,
        0.0,
        0.0,
        1.0
      ],
      "name": "Sketchfab_model"
    },
    {
      "children": [
        2
      ],
      "name": "3fc7974cf53f4932b87f35a33a4e0d8b.obj.cleaner.materialmerger.gles"
    },
    {
      "mesh": 0,
      "name": "Object_2"
    }
  ],
  "samplers": [
    {
      "magFilter": 9729,
      "minFilter": 9987,
      "wrapS": 10497,
      "wrapT": 10497
    }
  ],
  "scene": 0,
  "scenes": [
    {
      "name": "Sketchfab_Scene",
      "nodes": [
        0
      ]
    }
  ],
  "textures": [
    {
      "sampler": 0,
      "source": 0
    },
    {
      "sampler": 0,
      "source": 1
    },
    {
      "sampler": 0,
      "source": 2
    }
  ]
}
