{
  "accessors": [
    {
      "bufferView": 2,
      "componentType": 5126,
      "count": 38553,
      "max": [
        471.68548583984375,
        1339.0614013671875,
        334.37353515625
      ],
      "min": [
        -475.13720703125,
        552.0858154296875,
        211.52442932128906
      ],
      "type": "VEC3"
    },
    {
      "bufferView": 2,
      "byteOffset": 462636,
      "componentType": 5126,
      "count": 38553,
      "max": [
        1.0,
        1.0,
        0.9996005892753601
      ],
      "min": [
        -1.0,
        -1.0,
        -1.0
      ],
      "type": "VEC3"
    },
    {
      "bufferView": 1,
      "componentType": 5126,
      "count": 38553,
      "max": [
        0.9950399994850159,
        0.9958800077438354
      ],
      "min": [
        0.0019499999471008778,
        0.0019499999471008778
      ],
      "type": "VEC2"
    },
    {
      "bufferView": 0,
      "componentType": 5125,
      "count": 91332,
      "type": "SCALAR"
    },
    {
      "bufferView": 2,
      "byteOffset": 925272,
      "componentType": 5126,
      "count": 240,
      "max": [
        21.004638671875,
        443.9471130371094,
        207.2318115234375
      ],
      "min": [
        -1728.4825439453125,
        -267.4482116699219,
        -24.781291961669922
      ],
      "type": "VEC3"
    },
    {
      "bufferView": 2,
      "byteOffset": 928152,
      "componentType": 5126,
      "count": 240,
      "max": [
        1.0,
        0.9426817297935486,
        0.9426745176315308
      ],
      "min": [
        -1.0,
        -0.9426817297935486,
        -0.9427059888839722
      ],
      "type": "VEC3"
    },
    {
      "bufferView": 1,
      "byteOffset": 308424,
      "componentType": 5126,
      "count": 240,
      "max": [
        0.36253300309181213,
        0.9995750188827515
      ],
      "min": [
        0.0,
        0.0
      ],
      "type": "VEC2"
    },
    {
      "bufferView": 0,
      "byteOffset": 365328,
      "componentType": 5125,
      "count": 378,
      "type": "SCALAR"
    },
    {
      "bufferView": 2,
      "byteOffset": 931032,
      "componentType": 5126,
      "count": 36633,
      "max": [
        -839.187255859375,
        190.60546875,
        145.59716796875
      ],
      "min": [
        -2619.34228515625,
        -237.50775146484375,
        -24.19137191772461
      ],
      "type": "VEC3"
    },
    {
      "bufferView": 2,
      "byteOffset": 1370628,
      "componentType": 5126,
      "count": 36633,
      "max": [
        0.8155384063720703,
        0.3155977129936218,
        0.9538121819496155
      ],
      "min": [
        -0.8151160478591919,
        -0.9925417900085449,
        -0.9925417900085449
      ],
      "type": "VEC3"
    },
    {
      "bufferView": 1,
      "byteOffset": 310344,
      "componentType": 5126,
      "count": 36633,
      "max": [
        0.995140016078949,
        0.9958800077438354
      ],
      "min": [
        0.0019499999471008778,
        0.0019499999471008778
      ],
      "type": "VEC2"
    },
    {
      "bufferView": 0,
      "byteOffset": 366840,
      "componentType": 5125,
      "count": 84600,
      "type": "SCALAR"
    },
    {
      "bufferView": 2,
      "byteOffset": 1810224,
      "componentType": 5126,
      "count": 36640,
      "max": [
        -839.1871337890625,
        -222.85592651367188,
        -11.381275177001953
      ],
      "min": [
        -2619.34228515625,
        -650.9691162109375,
        -181.16981506347656
      ],
      "type": "VEC3"
    },
    {
      "bufferView": 2,
      "byteOffset": 2249904,
      "componentType": 5126,
      "count": 36640,
      "max": [
        0.8155200481414795,
        0.3155977129936218,
        0.9538121819496155
      ],
      "min": [
        -0.815140426158905,
        -0.9925417900085449,
        -0.9925417900085449
      ],
      "type": "VEC3"
    },
    {
      "bufferView": 1,
      "byteOffset": 603408,
      "componentType": 5126,
      "count": 36640,
      "max": [
        0.995140016078949,
        0.9958800077438354
      ],
      "min": [
        0.0019499999471008778,
        0.0019499999471008778
      ],
      "type": "VEC2"
    },
    {
      "bufferView": 0,
      "byteOffset": 705240,
      "componentType": 5125,
      "count": 84600,
      "type": "SCALAR"
    },
    {
      "bufferView": 2,
      "byteOffset": 2689584,
      "componentType": 5126,
      "count": 18331,
      "max": [
        456.7654113769531,
        214.04446411132813,
        122.64071655273438
      ],
      "min": [
        -466.94561767578125,
        -245.3795166015625,
        0.0
      ],
      "type": "VEC3"
    },
    {
      "bufferView": 2,
      "byteOffset": 2909556,
      "componentType": 5126,
      "count": 18331,
      "max": [
        0.8155268430709839,
        0.19759666919708252,
        0.9833164811134338
      ],
      "min": [
        -0.8151214718818665,
        -1.0,
        -1.0
      ],
      "type": "VEC3"
    },
    {
      "bufferView": 1,
      "byteOffset": 896528,
      "componentType": 5126,
      "count": 18331,
      "max": [
        0.995140016078949,
        0.9958800077438354
      ],
      "min": [
        0.0019499999471008778,
        0.0019499999471008778
      ],
      "type": "VEC2"
    },
    {
      "bufferView": 0,
      "byteOffset": 1043640,
      "componentType": 5125,
      "count": 42300,
      "type": "SCALAR"
    }
  ],
  "asset": {
    "extras": {
      "author": "Nol22 (https://sketchfab.com/manoloescobedo22)",
      "license": "CC-BY-4.0 (http://creativecommons.org/licenses/by/4.0/)",
      "source": "https://sketchfab.com/3d-models/rooftiles-6a88205d92404d0face66d5706fc278c",
      "title": "Rooftiles"
    },
    "generator": "Sketchfab-12.68.0",
    "version": "2.0"
  },
  "bufferViews": [
    {
      "buffer": 0,
      "byteLength": 1212840,
      "name": "floatBufferViews",
      "target": 34963
    },
    {
      "buffer": 0,
      "byteLength": 1043176,
      "byteOffset": 1212840,
      "byteStride": 8,
      "name": "floatBufferViews",
      "target": 34962
    },
    {
      "buffer": 0,
      "byteLength": 3129528,
      "byteOffset": 2256016,
      "byteStride": 12,
      "name": "floatBufferViews",
      "target": 34962
    }
  ],
  "buffers": [
    {
      "byteLength": 5385544,
      "uri": "scene.bin"
    }
  ],
  "images": [
    {
      "uri": "textures/tejasmat_baseColor.png"
    },
    {
      "uri": "textures/tejasmat_metallicRoughness.png"
    }
  ],
  "materials": [
    {
      "doubleSided": true,
      "name": "Material",
      "pbrMetallicRoughness": {
        "baseColorFactor": [
          0.3749243578,
          1.0,
          0.0,
          1.0
        ],
        "metallicFactor": 0.0,
        "roughnessFactor": 0.6
      }
    },
    {
      "doubleSided": true,
      "name": "tejasmat",
      "pbrMetallicRoughness": {
        "baseColorTexture": {
          "index": 0
        },
        "metallicFactor": 0.0,
        "metallicRoughnessTexture": {
          "index": 1
        }
      }
    }
  ],
  "meshes": [
    {
      "name": "Object_0",
      "primitives": [
        {
          "attributes": {
            "NORMAL": 1,
            "POSITION": 0,
            "TEXCOORD_0": 2
          },
          "indices": 3,
          "material": 1,
          "mode": 4
        }
      ]
    },
    {
      "name": "Object_1",
      "primitives": [
        {
          "attributes": {
            "NORMAL": 5,
            "POSITION": 4,
            "TEXCOORD_0": 6
          },
          "indices": 7,
          "material": 0,
          "mode": 4
        }
      ]
    },
    {
      "name": "Object_2",
      "primitives": [
        {
          "attributes": {
            "NORMAL": 9,
            "POSITION": 8,
            "TEXCOORD_0": 10
          },
          "indices": 11,
          "material": 1,
          "mode": 4
        }
      ]
    },
    {
      "name": "Object_3",
      "primitives": [
        {
          "attributes": {
            "NORMAL": 13,
            "POSITION": 12,
            "TEXCOORD_0": 14
          },
          "indices": 15,
          "material": 1,
          "mode": 4
        }
      ]
    },
    {
      "name": "Object_4",
      "primitives": [
        {
          "attributes": {
            "NORMAL": 17,
            "POSITION": 16,
            "TEXCOORD_0": 18
          },
          "indices": 19,
          "material": 1,
          "mode": 4
        }
      ]
    }
  ],
  "nodes": [
    {
      "children": [
        1
      ],
      "matrix": [
        1.0,
        0.0,
        0.0,
        0.0,
        0.0,
        2.220446049250313e-16,
        -1.0,
        0.0,
        0.0,
        1.0,
        2.220446049250313e-16,
        0.0,
        0.0,
        0.0,
        0.0,
        1.0
      ],
      "name": "Sketchfab_model"
    },
    {
      "children": [
        2,
        3,
        4,
        5,
        6
      ],
      "name": "rooftiles4.obj.cleaner.materialmerger.gles"
    },
    {
      "mesh": 0,
      "name": "Object_2"
    },
    {
      "mesh": 1,
      "name": "Object_3"
    },
    {
      "mesh": 2,
      "name": "Object_4"
    },
    {
      "mesh": 3,
      "name": "Object_5"
    },
    {
      "mesh": 4,
      "name": "Object_6"
    }
  ],
  "samplers": [
    {
      "magFilter": 9729,
      "minFilter": 9987,
      "wrapS": 10497,
      "wrapT": 10497
    }
  ],
  "scene": 0,
  "scenes": [
    {
      "name": "Sketchfab_Scene",
      "nodes": [
        0
      ]
    }
  ],
  "textures": [
    {
      "sampler": 0,
      "source": 0
    },
    {
      "sampler": 0,
      "source": 1
    }
  ]
}
