{
  "accessors": [
    {
      "bufferView": 2,
      "componentType": 5126,
      "count": 455,
      "max": [
        34.233036041259766,
        4.3106770515441895,
        18.596704483032227
      ],
      "min": [
        -0.38172098994255066,
        -11.617939949035645,
        0.0402350015938282
      ],
      "type": "VEC3"
    },
    {
      "bufferView": 2,
      "byteOffset": 5460,
      "componentType": 5126,
      "count": 455,
      "max": [
        0.9997158050537109,
        0.9999999403953552,
        0.736792266368866
      ],
      "min": [
        -0.9999498724937439,
        -0.9999924302101135,
        -0.9173638224601746
      ],
      "type": "VEC3"
    },
    {
      "bufferView": 3,
      "componentType": 5126,
      "count": 455,
      "max": [
        0.9999999403953552,
        0.9999841451644897,
        1.0,
        1.0
      ],
      "min": [
        -0.9999999403953552,
        -0.9841306209564209,
        -0.9999956488609314,
        1.0
      ],
      "type": "VEC4"
    },
    {
      "bufferView": 1,
      "componentType": 5126,
      "count": 455,
      "max": [
        0.9969200491905212,
        0.999500036239624
      ],
      "min": [
        0.0005000000237487257,
        0.0005000000237487257
      ],
      "type": "VEC2"
    },
    {
      "bufferView": 0,
      "componentType": 5125,
      "count": 1278,
      "type": "SCALAR"
    },
    {
      "bufferView": 2,
      "byteOffset": 10920,
      "componentType": 5126,
      "count": 166,
      "max": [
        33.19276428222656,
        -10.544257164001465,
        14.055288314819336
      ],
      "min": [
        22.244304656982422,
        -11.715378761291504,
        1.7245969772338867
      ],
      "type": "VEC3"
    },
    {
      "bufferView": 2,
      "byteOffset": 12912,
      "componentType": 5126,
      "count": 166,
      "max": [
        0.9927970170974731,
        0.9999995231628418,
        0.9604177474975586
      ],
      "min": [
        -0.9965227246284485,
        -0.9998895525932312,
        -0.9605326056480408
      ],
      "type": "VEC3"
    },
    {
      "bufferView": 3,
      "byteOffset": 7280,
      "componentType": 5126,
      "count": 166,
      "max": [
        1.0,
        0.8251502513885498,
        0.8731343746185303,
        1.0
      ],
      "min": [
        -0.9953513145446777,
        -0.9973336458206177,
        -1.0,
        1.0
      ],
      "type": "VEC4"
    },
    {
      "bufferView": 1,
      "byteOffset": 3640,
      "componentType": 5126,
      "count": 166,
      "max": [
        0.9986277222633362,
        0.716279923915863
      ],
      "min": [
        0.02331465296447277,
        0.12369910627603531
      ],
      "type": "VEC2"
    },
    {
      "bufferView": 0,
      "byteOffset": 5112,
      "componentType": 5125,
      "count": 594,
      "type": "SCALAR"
    },
    {
      "bufferView": 2,
      "byteOffset": 14904,
      "componentType": 5126,
      "count": 154,
      "max": [
        33.21053695678711,
        3.6097939014434814,
        18.09027099609375
      ],
      "min": [
        22.242870330810547,
        -11.715378761291504,
        14.736425399780273
      ],
      "type": "VEC3"
    },
    {
      "bufferView": 2,
      "byteOffset": 16752,
      "componentType": 5126,
      "count": 154,
      "max": [
        0.9965227246284485,
        0.7333373427391052,
        0.9605327248573303
      ],
      "min": [
        -0.9927970170974731,
        -0.9998895525932312,
        -0.9992350935935974
      ],
      "type": "VEC3"
    },
    {
      "bufferView": 3,
      "byteOffset": 9936,
      "componentType": 5126,
      "count": 154,
      "max": [
        0.9999709129333496,
        0.9999924898147583,
        0.9732915163040161,
        1.0
      ],
      "min": [
        -0.9829596281051636,
        -0.9973336458206177,
        -0.8320667743682861,
        1.0
      ],
      "type": "VEC4"
    },
    {
      "bufferView": 1,
      "byteOffset": 4968,
      "componentType": 5126,
      "count": 154,
      "max": [
        0.9977428913116455,
        0.9953433871269226
      ],
      "min": [
        0.14651376008987427,
        0.12369910627603531
      ],
      "type": "VEC2"
    },
    {
      "bufferView": 0,
      "byteOffset": 7488,
      "componentType": 5125,
      "count": 594,
      "type": "SCALAR"
    },
    {
      "bufferView": 4,
      "componentType": 5126,
      "count": 83,
      "max": [
        2.7333333492279053
      ],
      "min": [
        0.0
      ],
      "type": "SCALAR"
    },
    {
      "bufferView": 6,
      "componentType": 5126,
      "count": 83,
      "max": [
        -0.5000000596046448,
        0.4999999701976776,
        0.4999999701976776,
        0.7071067690849304
      ],
      "min": [
        -0.7071067690849304,
        -0.0,
        0.0,
        0.5000000596046448
      ],
      "type": "VEC4"
    },
    {
      "bufferView": 4,
      "byteOffset": 332,
      "componentType": 5126,
      "count": 83,
      "max": [
        2.7333333492279053
      ],
      "min": [
        0.0
      ],
      "type": "SCALAR"
    },
    {
      "bufferView": 5,
      "componentType": 5126,
      "count": 83,
      "max": [
        27.726703643798828,
        14.751153945922852,
        14.363348007202148
      ],
      "min": [
        27.726703643798828,
        14.751153945922852,
        3.640018939971924
      ],
      "type": "VEC3"
    }
  ],
  "animations": [
    {
      "channels": [
        {
          "sampler": 0,
          "target": {
            "node": 7,
            "path": "rotation"
          }
        },
        {
          "sampler": 1,
          "target": {
            "node": 10,
            "path": "translation"
          }
        }
      ],
      "name": "Open_Close",
      "samplers": [
        {
          "input": 15,
          "interpolation": "LINEAR",
          "output": 16
        },
        {
          "input": 17,
          "interpolation": "LINEAR",
          "output": 18
        }
      ]
    }
  ],
  "asset": {
    "extras": {
      "author": "Shedmon (https://sketchfab.com/shedmon)",
      "license": "CC-BY-4.0 (http://creativecommons.org/licenses/by/4.0/)",
      "source": "https://sketchfab.com/3d-models/wooden-table-8aa5ac305be84377806d53801e5b5e4d",
      "title": "Wooden Table"
    },
    "generator": "Sketchfab-13.88.0",
    "version": "2.0"
  },
  "bufferViews": [
    {
      "buffer": 0,
      "byteLength": 9864,
      "name": "floatBufferViews",
      "target": 34963
    },
    {
      "buffer": 0,
      "byteLength": 6200,
      "byteOffset": 9864,
      "byteStride": 8,
      "name": "floatBufferViews",
      "target": 34962
    },
    {
      "buffer": 0,
      "byteLength": 18600,
      "byteOffset": 16064,
      "byteStride": 12,
      "name": "floatBufferViews",
      "target": 34962
    },
    {
      "buffer": 0,
      "byteLength": 12400,
      "byteOffset": 34664,
      "byteStride": 16,
      "name": "floatBufferViews",
      "target": 34962
    },
    {
      "buffer": 0,
      "byteLength": 664,
      "byteOffset": 47064,
      "name": "floatBufferViews"
    },
    {
      "buffer": 0,
      "byteLength": 996,
      "byteOffset": 47728,
      "byteStride": 12,
      "name": "floatBufferViews"
    },
    {
      "buffer": 0,
      "byteLength": 1328,
      "byteOffset": 48724,
      "byteStride": 16,
      "name": "floatBufferViews"
    }
  ],
  "buffers": [
    {
      "byteLength": 50052,
      "uri": ".bin"
    }
  ],
  "images": [
    {
      "uri": "textures/Table_baseColor.png"
    },
    {
      "uri": "textures/Table_metallicRoughness.png"
    },
    {
      "uri": "textures/Table_normal.png"
    }
  ],
  "materials": [
    {
      "doubleSided": true,
      "name": "Table",
      "normalTexture": {
        "index": 2
      },
      "occlusionTexture": {
        "index": 1
      },
      "pbrMetallicRoughness": {
        "baseColorTexture": {
          "index": 0
        },
        "metallicRoughnessTexture": {
          "index": 1
        }
      }
    }
  ],
  "meshes": [
    {
      "name": "main_Table_0",
      "primitives": [
        {
          "attributes": {
            "NORMAL": 1,
            "POSITION": 0,
            "TANGENT": 2,
            "TEXCOORD_0": 3
          },
          "indices": 4,
          "material": 0,
          "mode": 4
        }
      ]
    },
    {
      "name": "door_1_Table_0",
      "primitives": [
        {
          "attributes": {
            "NORMAL": 6,
            "POSITION": 5,
            "TANGENT": 7,
            "TEXCOORD_0": 8
          },
          "indices": 9,
          "material": 0,
          "mode": 4
        }
      ]
    },
    {
      "name": "box_Table_0",
      "primitives": [
        {
          "attributes": {
            "NORMAL": 11,
            "POSITION": 10,
            "TANGENT": 12,
            "TEXCOORD_0": 13
          },
          "indices": 14,
          "material": 0,
          "mode": 4
        }
      ]
    }
  ],
  "nodes": [
    {
      "children": [
        1
      ],
      "matrix": [
        1.0,
        0.0,
        0.0,
        0.0,
        0.0,
        2.220446049250313e-16,
        -1.0,
        0.0,
        0.0,
        1.0,
        2.220446049250313e-16,
        0.0,
        0.0,
        0.0,
        0.0,
        1.0
      ],
      "name": "Sketchfab_model"
    },
    {
      "children": [
        2
      ],
      "matrix": [
        1.0,
        0.0,
        0.0,
        0.0,
        0.0,
        0.0,
        1.0,
        0.0,
        0.0,
        -1.0,
        0.0,
        0.0,
        0.0,
        0.0,
        0.0,
        1.0
      ],
      "name": "b65b724a173843eaa6ef8d2f80cf5bcb.fbx"
    },
    {
      "children": [
        3
      ],
      "name": "Object_2"
    },
    {
      "children": [
        4,
        7,
        10
      ],
      "name": "RootNode"
    },
    {
      "children": [
        5
      ],
      "name": "main",
      "rotation": [
        -0.7071068286895752,
        -0.0,
        0.0,
        0.7071068286895752
      ],
      "translation": [
        16.925657272338867,
        0.03266038000583649,
        3.6536309719085693
      ]
    },
    {
      "children": [
        6
      ],
      "matrix": [
        1.0,
        0.0,
        -0.0,
        0.0,
        0.0,
        1.0,
        0.0,
        0.0,
        0.0,
        0.0,
        1.0,
        0.0,
        -16.925657272338867,
        3.6536309719085693,
        -0.03266038000583649,
        1.0
      ],
      "name": "Object_5"
    },
    {
      "mesh": 0,
      "name": "main_Table_0"
    },
    {
      "children": [
        8
      ],
      "name": "door_1",
      "rotation": [
        -0.7071068286895752,
        -0.0,
        0.0,
        0.7071068286895752
      ],
      "translation": [
        33.187896728515625,
        7.889942646026611,
        10.553153991699219
      ]
    },
    {
      "children": [
        9
      ],
      "matrix": [
        1.0,
        0.0,
        -0.0,
        0.0,
        0.0,
        1.0,
        0.0,
        0.0,
        0.0,
        0.0,
        1.0,
        0.0,
        -33.187896728515625,
        10.553153991699219,
        -7.889942646026611,
        1.0
      ],
      "name": "Object_8"
    },
    {
      "mesh": 1,
      "name": "door_1_Table_0"
    },
    {
      "children": [
        11
      ],
      "name": "box",
      "rotation": [
        -0.7071068286895752,
        -0.0,
        0.0,
        0.7071068286895752
      ],
      "translation": [
        27.726703643798828,
        14.751153945922852,
        3.640018939971924
      ]
    },
    {
      "children": [
        12
      ],
      "matrix": [
        1.0,
        0.0,
        -0.0,
        0.0,
        0.0,
        1.0,
        0.0,
        0.0,
        0.0,
        0.0,
        1.0,
        0.0,
        -27.726703643798828,
        3.640018939971924,
        -14.751153945922852,
        1.0
      ],
      "name": "Object_11"
    },
    {
      "mesh": 2,
      "name": "box_Table_0"
    }
  ],
  "samplers": [
    {
      "magFilter": 9729,
      "minFilter": 9987,
      "wrapS": 10497,
      "wrapT": 10497
    }
  ],
  "scene": 0,
  "scenes": [
    {
      "name": "Sketchfab_Scene",
      "nodes": [
        0
      ]
    }
  ],
  "textures": [
    {
      "sampler": 0,
      "source": 0
    },
    {
      "sampler": 0,
      "source": 1
    },
    {
      "sampler": 0,
      "source": 2
    }
  ]
}
