{
  "accessors": [
    {
      "bufferView": 2,
      "componentType": 5126,
      "count": 442,
      "max": [
        1.0,
        0.0256595890969038,
        1.0
      ],
      "min": [
        -1.000000238418579,
        -0.48466095328330994,
        -1.0000004768371582
      ],
      "type": "VEC3"
    },
    {
      "bufferView": 2,
      "byteOffset": 5304,
      "componentType": 5126,
      "count": 442,
      "max": [
        0.9999982714653015,
        1.0,
        0.9999982714653015
      ],
      "min": [
        -0.9999983310699463,
        -1.0,
        -0.9999983310699463
      ],
      "type": "VEC3"
    },
    {
      "bufferView": 1,
      "componentType": 5126,
      "count": 442,
      "max": [
        0.9980083107948303,
        0.8814892172813416
      ],
      "min": [
        0.0019923599902540445,
        0.0017580993007868528
      ],
      "type": "VEC2"
    },
    {
      "bufferView": 0,
      "componentType": 5125,
      "count": 2280,
      "type": "SCALAR"
    },
    {
      "bufferView": 2,
      "byteOffset": 10608,
      "componentType": 5126,
      "count": 442,
      "max": [
        1.0,
        0.02565959095954895,
        1.0000001192092896
      ],
      "min": [
        -1.000000238418579,
        -1.000697374343872,
        -1.0000004768371582
      ],
      "type": "VEC3"
    },
    {
      "bufferView": 2,
      "byteOffset": 15912,
      "componentType": 5126,
      "count": 442,
      "max": [
        0.9999983310699463,
        1.0,
        0.9999983310699463
      ],
      "min": [
        -0.9999983310699463,
        -1.0,
        -0.9999983310699463
      ],
      "type": "VEC3"
    },
    {
      "bufferView": 1,
      "byteOffset": 3536,
      "componentType": 5126,
      "count": 442,
      "max": [
        0.48147469758987427,
        0.9400172233581543
      ],
      "min": [
        0.008759960532188416,
        0.5227560997009277
      ],
      "type": "VEC2"
    },
    {
      "bufferView": 0,
      "byteOffset": 9120,
      "componentType": 5125,
      "count": 2280,
      "type": "SCALAR"
    },
    {
      "bufferView": 2,
      "byteOffset": 21216,
      "componentType": 5126,
      "count": 442,
      "max": [
        1.0,
        0.02565959095954895,
        1.0000001192092896
      ],
      "min": [
        -1.000000238418579,
        -1.000697374343872,
        -1.0000004768371582
      ],
      "type": "VEC3"
    },
    {
      "bufferView": 2,
      "byteOffset": 26520,
      "componentType": 5126,
      "count": 442,
      "max": [
        0.9999983310699463,
        1.0,
        0.9999983310699463
      ],
      "min": [
        -0.9999983310699463,
        -1.0,
        -0.9999983310699463
      ],
      "type": "VEC3"
    },
    {
      "bufferView": 1,
      "byteOffset": 7072,
      "componentType": 5126,
      "count": 442,
      "max": [
        0.48147469758987427,
        0.9400172233581543
      ],
      "min": [
        0.008759960532188416,
        0.5227560997009277
      ],
      "type": "VEC2"
    },
    {
      "bufferView": 0,
      "byteOffset": 18240,
      "componentType": 5125,
      "count": 2280,
      "type": "SCALAR"
    }
  ],
  "asset": {
    "extras": {
      "author": "EhhSean (https://sketchfab.com/ehhsean1)",
      "license": "CC-BY-4.0 (http://creativecommons.org/licenses/by/4.0/)",
      "source": "https://sketchfab.com/3d-models/camera-render-a7692616aff54759a6b984626c318a5a",
      "title": "Camera Render"
    },
    "generator": "Sketchfab-12.66.0",
    "version": "2.0"
  },
  "bufferViews": [
    {
      "buffer": 0,
      "byteLength": 27360,
      "name": "floatBufferViews",
      "target": 34963
    },
    {
      "buffer": 0,
      "byteLength": 10608,
      "byteOffset": 27360,
      "byteStride": 8,
      "name": "floatBufferViews",
      "target": 34962
    },
    {
      "buffer": 0,
      "byteLength": 31824,
      "byteOffset": 37968,
      "byteStride": 12,
      "name": "floatBufferViews",
      "target": 34962
    }
  ],
  "buffers": [
    {
      "byteLength": 69792,
      "uri": "scene.bin"
    }
  ],
  "images": [
    {
      "uri": "textures/lambert1_baseColor.png"
    },
    {
      "uri": "textures/lambert9_baseColor.png"
    },
    {
      "uri": "textures/lambert9_emissive.png"
    }
  ],
  "materials": [
    {
      "alphaCutoff": 0.0,
      "alphaMode": "MASK",
      "doubleSided": true,
      "name": "lambert1",
      "pbrMetallicRoughness": {
        "baseColorFactor": [
          0.03439405487804878,
          0.03439405487804878,
          0.03439405487804878,
          1.0
        ],
        "baseColorTexture": {
          "index": 0
        },
        "metallicFactor": 0.0,
        "roughnessFactor": 0.6
      }
    },
    {
      "alphaMode": "BLEND",
      "doubleSided": true,
      "name": "lambert8",
      "pbrMetallicRoughness": {
        "baseColorFactor": [
          0.0,
          0.0,
          0.0,
          0.14462652439024395
        ],
        "baseColorTexture": {
          "index": 0
        },
        "metallicFactor": 0.0,
        "roughnessFactor": 0.0
      }
    },
    {
      "alphaCutoff": 0.0,
      "alphaMode": "MASK",
      "doubleSided": true,
      "emissiveFactor": [
        1.0,
        1.0,
        1.0
      ],
      "emissiveTexture": {
        "index": 2
      },
      "name": "lambert9",
      "pbrMetallicRoughness": {
        "baseColorFactor": [
          0.0,
          0.0,
          0.0,
          1.0
        ],
        "baseColorTexture": {
          "index": 1
        },
        "metallicFactor": 0.0,
        "roughnessFactor": 0.6
      }
    }
  ],
  "meshes": [
    {
      "name": "pSphere15_lambert1_0",
      "primitives": [
        {
          "attributes": {
            "NORMAL": 1,
            "POSITION": 0,
            "TEXCOORD_0": 2
          },
          "indices": 3,
          "material": 0,
          "mode": 4
        }
      ]
    },
    {
      "name": "pSphere16_lambert8_0",
      "primitives": [
        {
          "attributes": {
            "NORMAL": 5,
            "POSITION": 4,
            "TEXCOORD_0": 6
          },
          "indices": 7,
          "material": 1,
          "mode": 4
        }
      ]
    },
    {
      "name": "pSphere17_lambert9_0",
      "primitives": [
        {
          "attributes": {
            "NORMAL": 9,
            "POSITION": 8,
            "TEXCOORD_0": 10
          },
          "indices": 11,
          "material": 2,
          "mode": 4
        }
      ]
    }
  ],
  "nodes": [
    {
      "children": [
        1
      ],
      "matrix": [
        1.0,
        0.0,
        0.0,
        0.0,
        0.0,
        2.220446049250313e-16,
        -1.0,
        0.0,
        0.0,
        1.0,
        2.220446049250313e-16,
        0.0,
        0.0,
        0.0,
        0.0,
        1.0
      ],
      "name": "Sketchfab_model"
    },
    {
      "children": [
        2
      ],
      "matrix": [
        1.0,
        0.0,
        0.0,
        0.0,
        0.0,
        0.0,
        1.0,
        0.0,
        0.0,
        -1.0,
        0.0,
        0.0,
        0.0,
        0.0,
        0.0,
        1.0
      ],
      "name": "5583006b717e46308dfc0141fec6604e.fbx"
    },
    {
      "children": [
        3,
        5,
        7
      ],
      "name": "RootNode"
    },
    {
      "children": [
        4
      ],
      "matrix": [
        49.70396423339844,
        0.0,
        0.0,
        0.0,
        0.0,
        49.70396423339844,
        0.0,
        0.0,
        0.0,
        0.0,
        49.70396423339844,
        0.0,
        0.0,
        0.0,
        368.9840087890625,
        1.0
      ],
      "name": "pSphere15"
    },
    {
      "mesh": 0,
      "name": "pSphere15_lambert1_0"
    },
    {
      "children": [
        6
      ],
      "matrix": [
        42.227317810058594,
        0.0,
        0.0,
        0.0,
        0.0,
        42.227317810058594,
        0.0,
        0.0,
        0.0,
        0.0,
        42.227317810058594,
        0.0,
        0.0,
        -4.154646873474121,
        369.2413024902344,
        1.0
      ],
      "name": "pSphere16"
    },
    {
      "mesh": 1,
      "name": "pSphere16_lambert8_0"
    },
    {
      "children": [
        8
      ],
      "matrix": [
        39.75540542602539,
        0.0,
        0.0,
        0.0,
        0.0,
        39.75540542602539,
        0.0,
        0.0,
        0.0,
        0.0,
        39.75540542602539,
        0.0,
        0.0,
        -6.340110778808594,
        369.2413024902344,
        1.0
      ],
      "name": "pSphere17"
    },
    {
      "mesh": 2,
      "name": "pSphere17_lambert9_0"
    }
  ],
  "samplers": [
    {
      "magFilter": 9729,
      "minFilter": 9987,
      "wrapS": 10497,
      "wrapT": 10497
    }
  ],
  "scene": 0,
  "scenes": [
    {
      "name": "Sketchfab_Scene",
      "nodes": [
        0
      ]
    }
  ],
  "textures": [
    {
      "sampler": 0,
      "source": 0
    },
    {
      "sampler": 0,
      "source": 1
    },
    {
      "sampler": 0,
      "source": 2
    }
  ]
}
